<?xml version="1.0" encoding="UTF-8" standalone="no"?>
<!DOCTYPE svg PUBLIC "-//W3C//DTD SVG 1.1//EN"
 "http://www.w3.org/Graphics/SVG/1.1/DTD/svg11.dtd">
<!-- Generated by graphviz version 5.0.0 (20220707.1540)
 -->
<!-- Title: dependencies Pages: 1 -->
<svg width="2923pt" height="174pt"
 viewBox="0.00 0.00 2923.00 173.80" xmlns="http://www.w3.org/2000/svg" xmlns:xlink="http://www.w3.org/1999/xlink">
<g id="graph0" class="graph" transform="scale(1 1) rotate(0) translate(4 169.8)">
<title>dependencies</title>
<polygon fill="white" stroke="transparent" points="-4,4 -4,-169.8 2919,-169.8 2919,4 -4,4"/>
<text text-anchor="middle" x="1457.5" y="-8.2" font-family="sans-serif" font-size="14.00">dependencies</text>
<g id="clust1" class="cluster">
<title>cluster_UserModule</title>
<polygon fill="none" stroke="black" stroke-dasharray="1,5" points="8,-32.8 8,-157.8 2907,-157.8 2907,-32.8 8,-32.8"/>
</g>
<g id="clust21" class="cluster">
<title>cluster_UserModule_imports</title>
<polygon fill="none" stroke="black" points="2751,-40.8 2751,-92.8 2899,-92.8 2899,-40.8 2751,-40.8"/>
</g>
<g id="clust2" class="cluster">
<title>cluster_UserModule_declarations</title>
<polygon fill="none" stroke="black" points="16,-40.8 16,-92.8 2743,-92.8 2743,-40.8 16,-40.8"/>
</g>
<!-- AboutusComponent -->
<g id="node1" class="node">
<title>AboutusComponent</title>
<polygon fill="#ffffb3" stroke="black" points="2735.28,-84.8 2606.72,-84.8 2606.72,-48.8 2735.28,-48.8 2735.28,-84.8"/>
<text text-anchor="middle" x="2671" y="-62.6" font-family="Times,serif" font-size="14.00">AboutusComponent</text>
</g>
<!-- UserModule -->
<g id="node19" class="node">
<title>UserModule</title>
<polygon fill="#8dd3c7" stroke="black" points="1474.99,-149.8 1471.99,-153.8 1450.99,-153.8 1447.99,-149.8 1389.01,-149.8 1389.01,-113.8 1474.99,-113.8 1474.99,-149.8"/>
<text text-anchor="middle" x="1432" y="-127.6" font-family="Times,serif" font-size="14.00">UserModule</text>
</g>
<!-- AboutusComponent&#45;&gt;UserModule -->
<g id="edge1" class="edge">
<title>AboutusComponent&#45;&gt;UserModule</title>
<path fill="none" stroke="black" d="M2671,-84.81C2671,-107.29 2671,-142.8 2671,-142.8 2671,-142.8 1485.01,-142.8 1485.01,-142.8"/>
<polygon fill="black" stroke="black" points="1485.01,-139.3 1475.01,-142.8 1485.01,-146.3 1485.01,-139.3"/>
</g>
<!-- AuthorComponent -->
<g id="node2" class="node">
<title>AuthorComponent</title>
<polygon fill="#ffffb3" stroke="black" points="2588.49,-84.8 2467.51,-84.8 2467.51,-48.8 2588.49,-48.8 2588.49,-84.8"/>
<text text-anchor="middle" x="2528" y="-62.6" font-family="Times,serif" font-size="14.00">AuthorComponent</text>
</g>
<!-- AuthorComponent&#45;&gt;UserModule -->
<g id="edge2" class="edge">
<title>AuthorComponent&#45;&gt;UserModule</title>
<path fill="none" stroke="black" d="M2528,-84.84C2528,-106.46 2528,-139.8 2528,-139.8 2528,-139.8 1485.3,-139.8 1485.3,-139.8"/>
<polygon fill="black" stroke="black" points="1485.3,-136.3 1475.3,-139.8 1485.3,-143.3 1485.3,-136.3"/>
</g>
<!-- AuthorDetailsComponent -->
<g id="node3" class="node">
<title>AuthorDetailsComponent</title>
<polygon fill="#ffffb3" stroke="black" points="2449.15,-84.8 2288.85,-84.8 2288.85,-48.8 2449.15,-48.8 2449.15,-84.8"/>
<text text-anchor="middle" x="2369" y="-62.6" font-family="Times,serif" font-size="14.00">AuthorDetailsComponent</text>
</g>
<!-- AuthorDetailsComponent&#45;&gt;UserModule -->
<g id="edge3" class="edge">
<title>AuthorDetailsComponent&#45;&gt;UserModule</title>
<path fill="none" stroke="black" d="M2369,-84.93C2369,-105.37 2369,-135.8 2369,-135.8 2369,-135.8 1485,-135.8 1485,-135.8"/>
<polygon fill="black" stroke="black" points="1485,-132.3 1475,-135.8 1485,-139.3 1485,-132.3"/>
</g>
<!-- AuthorsComponent -->
<g id="node4" class="node">
<title>AuthorsComponent</title>
<polygon fill="#ffffb3" stroke="black" points="2270.44,-84.8 2143.56,-84.8 2143.56,-48.8 2270.44,-48.8 2270.44,-84.8"/>
<text text-anchor="middle" x="2207" y="-62.6" font-family="Times,serif" font-size="14.00">AuthorsComponent</text>
</g>
<!-- AuthorsComponent&#45;&gt;UserModule -->
<g id="edge4" class="edge">
<title>AuthorsComponent&#45;&gt;UserModule</title>
<path fill="none" stroke="black" d="M2207,-84.91C2207,-104.14 2207,-131.8 2207,-131.8 2207,-131.8 1485.05,-131.8 1485.05,-131.8"/>
<polygon fill="black" stroke="black" points="1485.05,-128.3 1475.05,-131.8 1485.05,-135.3 1485.05,-128.3"/>
</g>
<!-- BooksComponent -->
<g id="node5" class="node">
<title>BooksComponent</title>
<polygon fill="#ffffb3" stroke="black" points="2125.62,-84.8 2008.38,-84.8 2008.38,-48.8 2125.62,-48.8 2125.62,-84.8"/>
<text text-anchor="middle" x="2067" y="-62.6" font-family="Times,serif" font-size="14.00">BooksComponent</text>
</g>
<!-- BooksComponent&#45;&gt;UserModule -->
<g id="edge5" class="edge">
<title>BooksComponent&#45;&gt;UserModule</title>
<path fill="none" stroke="black" d="M2067,-85.07C2067,-103.36 2067,-128.8 2067,-128.8 2067,-128.8 1485.15,-128.8 1485.15,-128.8"/>
<polygon fill="black" stroke="black" points="1485.15,-125.3 1475.15,-128.8 1485.15,-132.3 1485.15,-125.3"/>
</g>
<!-- CategoriesComponent -->
<g id="node6" class="node">
<title>CategoriesComponent</title>
<polygon fill="#ffffb3" stroke="black" points="1990.7,-84.8 1849.3,-84.8 1849.3,-48.8 1990.7,-48.8 1990.7,-84.8"/>
<text text-anchor="middle" x="1920" y="-62.6" font-family="Times,serif" font-size="14.00">CategoriesComponent</text>
</g>
<!-- CategoriesComponent&#45;&gt;UserModule -->
<g id="edge6" class="edge">
<title>CategoriesComponent&#45;&gt;UserModule</title>
<path fill="none" stroke="black" d="M1920,-84.83C1920,-101.86 1920,-124.8 1920,-124.8 1920,-124.8 1485.31,-124.8 1485.31,-124.8"/>
<polygon fill="black" stroke="black" points="1485.31,-121.3 1475.31,-124.8 1485.31,-128.3 1485.31,-121.3"/>
</g>
<!-- CategoryComponent -->
<g id="node7" class="node">
<title>CategoryComponent</title>
<polygon fill="#ffffb3" stroke="black" points="1831.15,-84.8 1698.85,-84.8 1698.85,-48.8 1831.15,-48.8 1831.15,-84.8"/>
<text text-anchor="middle" x="1765" y="-62.6" font-family="Times,serif" font-size="14.00">CategoryComponent</text>
</g>
<!-- CategoryComponent&#45;&gt;UserModule -->
<g id="edge7" class="edge">
<title>CategoryComponent&#45;&gt;UserModule</title>
<path fill="none" stroke="black" d="M1765,-84.81C1765,-100.85 1765,-121.8 1765,-121.8 1765,-121.8 1485.19,-121.8 1485.19,-121.8"/>
<polygon fill="black" stroke="black" points="1485.19,-118.3 1475.19,-121.8 1485.19,-125.3 1485.19,-118.3"/>
</g>
<!-- CategoryDetailsComponent -->
<g id="node8" class="node">
<title>CategoryDetailsComponent</title>
<polygon fill="#ffffb3" stroke="black" points="1681.3,-84.8 1508.7,-84.8 1508.7,-48.8 1681.3,-48.8 1681.3,-84.8"/>
<text text-anchor="middle" x="1595" y="-62.6" font-family="Times,serif" font-size="14.00">CategoryDetailsComponent</text>
</g>
<!-- CategoryDetailsComponent&#45;&gt;UserModule -->
<g id="edge8" class="edge">
<title>CategoryDetailsComponent&#45;&gt;UserModule</title>
<path fill="none" stroke="black" d="M1595,-84.92C1595,-99.58 1595,-117.8 1595,-117.8 1595,-117.8 1485.25,-117.8 1485.25,-117.8"/>
<polygon fill="black" stroke="black" points="1485.25,-114.3 1475.25,-117.8 1485.25,-121.3 1485.25,-114.3"/>
</g>
<!-- FooterComponent -->
<g id="node9" class="node">
<title>FooterComponent</title>
<polygon fill="#ffffb3" stroke="black" points="1490.88,-84.8 1373.12,-84.8 1373.12,-48.8 1490.88,-48.8 1490.88,-84.8"/>
<text text-anchor="middle" x="1432" y="-62.6" font-family="Times,serif" font-size="14.00">FooterComponent</text>
</g>
<!-- FooterComponent&#45;&gt;UserModule -->
<g id="edge9" class="edge">
<title>FooterComponent&#45;&gt;UserModule</title>
<path fill="none" stroke="black" d="M1432,-84.91C1432,-84.91 1432,-103.79 1432,-103.79"/>
<polygon fill="black" stroke="black" points="1428.5,-103.79 1432,-113.79 1435.5,-103.79 1428.5,-103.79"/>
</g>
<!-- HomeComponent -->
<g id="node10" class="node">
<title>HomeComponent</title>
<polygon fill="#ffffb3" stroke="black" points="1354.55,-84.8 1239.45,-84.8 1239.45,-48.8 1354.55,-48.8 1354.55,-84.8"/>
<text text-anchor="middle" x="1297" y="-62.6" font-family="Times,serif" font-size="14.00">HomeComponent</text>
</g>
<!-- HomeComponent&#45;&gt;UserModule -->
<g id="edge10" class="edge">
<title>HomeComponent&#45;&gt;UserModule</title>
<path fill="none" stroke="black" d="M1297,-84.92C1297,-99.58 1297,-117.8 1297,-117.8 1297,-117.8 1378.91,-117.8 1378.91,-117.8"/>
<polygon fill="black" stroke="black" points="1378.91,-121.3 1388.91,-117.8 1378.91,-114.3 1378.91,-121.3"/>
</g>
<!-- LoginComponent -->
<g id="node11" class="node">
<title>LoginComponent</title>
<polygon fill="#ffffb3" stroke="black" points="1221.27,-84.8 1106.73,-84.8 1106.73,-48.8 1221.27,-48.8 1221.27,-84.8"/>
<text text-anchor="middle" x="1164" y="-62.6" font-family="Times,serif" font-size="14.00">LoginComponent</text>
</g>
<!-- LoginComponent&#45;&gt;UserModule -->
<g id="edge11" class="edge">
<title>LoginComponent&#45;&gt;UserModule</title>
<path fill="none" stroke="black" d="M1164,-84.81C1164,-100.85 1164,-121.8 1164,-121.8 1164,-121.8 1378.94,-121.8 1378.94,-121.8"/>
<polygon fill="black" stroke="black" points="1378.94,-125.3 1388.94,-121.8 1378.94,-118.3 1378.94,-125.3"/>
</g>
<!-- ProfileComponent -->
<g id="node12" class="node">
<title>ProfileComponent</title>
<polygon fill="#ffffb3" stroke="black" points="1088.94,-84.8 969.06,-84.8 969.06,-48.8 1088.94,-48.8 1088.94,-84.8"/>
<text text-anchor="middle" x="1029" y="-62.6" font-family="Times,serif" font-size="14.00">ProfileComponent</text>
</g>
<!-- ProfileComponent&#45;&gt;UserModule -->
<g id="edge12" class="edge">
<title>ProfileComponent&#45;&gt;UserModule</title>
<path fill="none" stroke="black" d="M1029,-84.83C1029,-101.86 1029,-124.8 1029,-124.8 1029,-124.8 1378.87,-124.8 1378.87,-124.8"/>
<polygon fill="black" stroke="black" points="1378.87,-128.3 1388.87,-124.8 1378.87,-121.3 1378.87,-128.3"/>
</g>
<!-- RegistrationComponent -->
<g id="node13" class="node">
<title>RegistrationComponent</title>
<polygon fill="#ffffb3" stroke="black" points="950.77,-84.8 801.23,-84.8 801.23,-48.8 950.77,-48.8 950.77,-84.8"/>
<text text-anchor="middle" x="876" y="-62.6" font-family="Times,serif" font-size="14.00">RegistrationComponent</text>
</g>
<!-- RegistrationComponent&#45;&gt;UserModule -->
<g id="edge13" class="edge">
<title>RegistrationComponent&#45;&gt;UserModule</title>
<path fill="none" stroke="black" d="M876,-85.07C876,-103.36 876,-128.8 876,-128.8 876,-128.8 1378.83,-128.8 1378.83,-128.8"/>
<polygon fill="black" stroke="black" points="1378.83,-132.3 1388.83,-128.8 1378.83,-125.3 1378.83,-132.3"/>
</g>
<!-- ShelveComponent -->
<g id="node14" class="node">
<title>ShelveComponent</title>
<polygon fill="#ffffb3" stroke="black" points="782.94,-84.8 663.06,-84.8 663.06,-48.8 782.94,-48.8 782.94,-84.8"/>
<text text-anchor="middle" x="723" y="-62.6" font-family="Times,serif" font-size="14.00">ShelveComponent</text>
</g>
<!-- ShelveComponent&#45;&gt;UserModule -->
<g id="edge14" class="edge">
<title>ShelveComponent&#45;&gt;UserModule</title>
<path fill="none" stroke="black" d="M723,-84.91C723,-104.14 723,-131.8 723,-131.8 723,-131.8 1378.98,-131.8 1378.98,-131.8"/>
<polygon fill="black" stroke="black" points="1378.98,-135.3 1388.98,-131.8 1378.98,-128.3 1378.98,-135.3"/>
</g>
<!-- ShelveMainComponent -->
<g id="node15" class="node">
<title>ShelveMainComponent</title>
<polygon fill="#ffffb3" stroke="black" points="645.49,-84.8 496.51,-84.8 496.51,-48.8 645.49,-48.8 645.49,-84.8"/>
<text text-anchor="middle" x="571" y="-62.6" font-family="Times,serif" font-size="14.00">ShelveMainComponent</text>
</g>
<!-- ShelveMainComponent&#45;&gt;UserModule -->
<g id="edge15" class="edge">
<title>ShelveMainComponent&#45;&gt;UserModule</title>
<path fill="none" stroke="black" d="M571,-84.93C571,-105.37 571,-135.8 571,-135.8 571,-135.8 1379.01,-135.8 1379.01,-135.8"/>
<polygon fill="black" stroke="black" points="1379.01,-139.3 1389.01,-135.8 1379.01,-132.3 1379.01,-139.3"/>
</g>
<!-- ShelveSidebarComponent -->
<g id="node16" class="node">
<title>ShelveSidebarComponent</title>
<polygon fill="#ffffb3" stroke="black" points="478.2,-84.8 315.8,-84.8 315.8,-48.8 478.2,-48.8 478.2,-84.8"/>
<text text-anchor="middle" x="397" y="-62.6" font-family="Times,serif" font-size="14.00">ShelveSidebarComponent</text>
</g>
<!-- ShelveSidebarComponent&#45;&gt;UserModule -->
<g id="edge16" class="edge">
<title>ShelveSidebarComponent&#45;&gt;UserModule</title>
<path fill="none" stroke="black" d="M397,-84.84C397,-106.46 397,-139.8 397,-139.8 397,-139.8 1378.85,-139.8 1378.85,-139.8"/>
<polygon fill="black" stroke="black" points="1378.85,-143.3 1388.85,-139.8 1378.85,-136.3 1378.85,-143.3"/>
</g>
<!-- SingleBookComponent -->
<g id="node17" class="node">
<title>SingleBookComponent</title>
<polygon fill="#ffffb3" stroke="black" points="297.95,-84.8 150.05,-84.8 150.05,-48.8 297.95,-48.8 297.95,-84.8"/>
<text text-anchor="middle" x="224" y="-62.6" font-family="Times,serif" font-size="14.00">SingleBookComponent</text>
</g>
<!-- SingleBookComponent&#45;&gt;UserModule -->
<g id="edge17" class="edge">
<title>SingleBookComponent&#45;&gt;UserModule</title>
<path fill="none" stroke="black" d="M224,-84.81C224,-107.29 224,-142.8 224,-142.8 224,-142.8 1379.01,-142.8 1379.01,-142.8"/>
<polygon fill="black" stroke="black" points="1379.01,-146.3 1389.01,-142.8 1379.01,-139.3 1379.01,-146.3"/>
</g>
<!-- UserComponent -->
<g id="node18" class="node">
<title>UserComponent</title>
<polygon fill="#ffffb3" stroke="black" points="131.77,-84.8 24.23,-84.8 24.23,-48.8 131.77,-48.8 131.77,-84.8"/>
<text text-anchor="middle" x="78" y="-62.6" font-family="Times,serif" font-size="14.00">UserComponent</text>
</g>
<!-- UserComponent&#45;&gt;UserModule -->
<g id="edge18" class="edge">
<title>UserComponent&#45;&gt;UserModule</title>
<path fill="none" stroke="black" d="M78,-84.95C78,-108.56 78,-146.8 78,-146.8 78,-146.8 1378.86,-146.8 1378.86,-146.8"/>
<polygon fill="black" stroke="black" points="1378.86,-150.3 1388.86,-146.8 1378.86,-143.3 1378.86,-150.3"/>
</g>
<!-- UserRoutingModule -->
<g id="node20" class="node">
<title>UserRoutingModule</title>
<polygon fill="#8dd3c7" stroke="black" points="2890.6,-84.8 2887.6,-88.8 2866.6,-88.8 2863.6,-84.8 2759.4,-84.8 2759.4,-48.8 2890.6,-48.8 2890.6,-84.8"/>
<text text-anchor="middle" x="2825" y="-62.6" font-family="Times,serif" font-size="14.00">UserRoutingModule</text>
</g>
<!-- UserRoutingModule&#45;&gt;UserModule -->
<g id="edge19" class="edge">
<title>UserRoutingModule&#45;&gt;UserModule</title>
<path fill="none" stroke="black" d="M2825,-84.95C2825,-108.56 2825,-146.8 2825,-146.8 2825,-146.8 1485.22,-146.8 1485.22,-146.8"/>
<polygon fill="black" stroke="black" points="1485.22,-143.3 1475.22,-146.8 1485.22,-150.3 1485.22,-143.3"/>
</g>
</g>
</svg>
