<?xml version="1.0" encoding="UTF-8" standalone="no"?>
<!DOCTYPE svg PUBLIC "-//W3C//DTD SVG 1.1//EN"
 "http://www.w3.org/Graphics/SVG/1.1/DTD/svg11.dtd">
<!-- Generated by graphviz version 5.0.0 (20220707.1540)
 -->
<!-- Title: dependencies Pages: 1 -->
<svg width="4749pt" height="247pt"
 viewBox="0.00 0.00 4749.00 246.80" xmlns="http://www.w3.org/2000/svg" xmlns:xlink="http://www.w3.org/1999/xlink">
<g id="graph0" class="graph" transform="scale(1 1) rotate(0) translate(4 242.8)">
<title>dependencies</title>
<polygon fill="white" stroke="transparent" points="-4,4 -4,-242.8 4745,-242.8 4745,4 -4,4"/>
<text text-anchor="middle" x="2370.5" y="-8.2" font-family="sans-serif" font-size="14.00">dependencies</text>
<g id="clust1" class="cluster">
<title>cluster_AdminModule</title>
<polygon fill="none" stroke="black" stroke-dasharray="1,5" points="8,-32.8 8,-157.8 1372,-157.8 1372,-32.8 8,-32.8"/>
</g>
<g id="clust2" class="cluster">
<title>cluster_AdminModule_declarations</title>
<polygon fill="none" stroke="black" points="184,-40.8 184,-92.8 1364,-92.8 1364,-40.8 184,-40.8"/>
</g>
<g id="clust10" class="cluster">
<title>cluster_AdminModule_imports</title>
<polygon fill="none" stroke="black" points="16,-40.8 16,-92.8 176,-92.8 176,-40.8 16,-40.8"/>
</g>
<g id="clust20" class="cluster">
<title>cluster_AppModule</title>
<polygon fill="none" stroke="black" stroke-dasharray="1,5" points="1380,-32.8 1380,-230.8 1826,-230.8 1826,-32.8 1380,-32.8"/>
</g>
<g id="clust21" class="cluster">
<title>cluster_AppModule_declarations</title>
<polygon fill="none" stroke="black" points="1540,-40.8 1540,-92.8 1818,-92.8 1818,-40.8 1540,-40.8"/>
</g>
<g id="clust24" class="cluster">
<title>cluster_AppModule_imports</title>
<polygon fill="none" stroke="black" points="1388,-40.8 1388,-92.8 1532,-92.8 1532,-40.8 1388,-40.8"/>
</g>
<g id="clust26" class="cluster">
<title>cluster_AppModule_bootstrap</title>
<polygon fill="none" stroke="black" points="1555,-170.8 1555,-222.8 1679,-222.8 1679,-170.8 1555,-170.8"/>
</g>
<g id="clust34" class="cluster">
<title>cluster_UserModule</title>
<polygon fill="none" stroke="black" stroke-dasharray="1,5" points="1834,-32.8 1834,-157.8 4733,-157.8 4733,-32.8 1834,-32.8"/>
</g>
<g id="clust35" class="cluster">
<title>cluster_UserModule_declarations</title>
<polygon fill="none" stroke="black" points="1998,-40.8 1998,-92.8 4725,-92.8 4725,-40.8 1998,-40.8"/>
</g>
<g id="clust54" class="cluster">
<title>cluster_UserModule_imports</title>
<polygon fill="none" stroke="black" points="1842,-40.8 1842,-92.8 1990,-92.8 1990,-40.8 1842,-40.8"/>
</g>
<!-- AdminAuthorsComponent -->
<g id="node1" class="node">
<title>AdminAuthorsComponent</title>
<polygon fill="#ffffb3" stroke="black" points="1355.83,-84.8 1190.17,-84.8 1190.17,-48.8 1355.83,-48.8 1355.83,-84.8"/>
<text text-anchor="middle" x="1273" y="-62.6" font-family="Times,serif" font-size="14.00">AdminAuthorsComponent</text>
</g>
<!-- AdminModule -->
<g id="node8" class="node">
<title>AdminModule</title>
<polygon fill="#8dd3c7" stroke="black" points="711.44,-149.8 708.44,-153.8 687.44,-153.8 684.44,-149.8 612.56,-149.8 612.56,-113.8 711.44,-113.8 711.44,-149.8"/>
<text text-anchor="middle" x="662" y="-127.6" font-family="Times,serif" font-size="14.00">AdminModule</text>
</g>
<!-- AdminAuthorsComponent&#45;&gt;AdminModule -->
<g id="edge1" class="edge">
<title>AdminAuthorsComponent&#45;&gt;AdminModule</title>
<path fill="none" stroke="black" d="M1273,-84.93C1273,-105.37 1273,-135.8 1273,-135.8 1273,-135.8 721.23,-135.8 721.23,-135.8"/>
<polygon fill="black" stroke="black" points="721.23,-132.3 711.23,-135.8 721.23,-139.3 721.23,-132.3"/>
</g>
<!-- AdminBooksComponent -->
<g id="node2" class="node">
<title>AdminBooksComponent</title>
<polygon fill="#ffffb3" stroke="black" points="1172.01,-84.8 1015.99,-84.8 1015.99,-48.8 1172.01,-48.8 1172.01,-84.8"/>
<text text-anchor="middle" x="1094" y="-62.6" font-family="Times,serif" font-size="14.00">AdminBooksComponent</text>
</g>
<!-- AdminBooksComponent&#45;&gt;AdminModule -->
<g id="edge2" class="edge">
<title>AdminBooksComponent&#45;&gt;AdminModule</title>
<path fill="none" stroke="black" d="M1094,-85.07C1094,-103.36 1094,-128.8 1094,-128.8 1094,-128.8 721.56,-128.8 721.56,-128.8"/>
<polygon fill="black" stroke="black" points="721.56,-125.3 711.56,-128.8 721.56,-132.3 721.56,-125.3"/>
</g>
<!-- AdminCategoriesComponent -->
<g id="node3" class="node">
<title>AdminCategoriesComponent</title>
<polygon fill="#ffffb3" stroke="black" points="998.09,-84.8 817.91,-84.8 817.91,-48.8 998.09,-48.8 998.09,-84.8"/>
<text text-anchor="middle" x="908" y="-62.6" font-family="Times,serif" font-size="14.00">AdminCategoriesComponent</text>
</g>
<!-- AdminCategoriesComponent&#45;&gt;AdminModule -->
<g id="edge3" class="edge">
<title>AdminCategoriesComponent&#45;&gt;AdminModule</title>
<path fill="none" stroke="black" d="M908,-84.81C908,-100.85 908,-121.8 908,-121.8 908,-121.8 721.49,-121.8 721.49,-121.8"/>
<polygon fill="black" stroke="black" points="721.49,-118.3 711.49,-121.8 721.49,-125.3 721.49,-118.3"/>
</g>
<!-- AdminComponent -->
<g id="node4" class="node">
<title>AdminComponent</title>
<polygon fill="#ffffb3" stroke="black" points="800.22,-84.8 679.78,-84.8 679.78,-48.8 800.22,-48.8 800.22,-84.8"/>
<text text-anchor="middle" x="740" y="-62.6" font-family="Times,serif" font-size="14.00">AdminComponent</text>
</g>
<!-- AdminComponent&#45;&gt;AdminModule -->
<g id="edge4" class="edge">
<title>AdminComponent&#45;&gt;AdminModule</title>
<path fill="none" stroke="black" d="M695.56,-84.91C695.56,-84.91 695.56,-103.79 695.56,-103.79"/>
<polygon fill="black" stroke="black" points="692.06,-103.79 695.56,-113.79 699.06,-103.79 692.06,-103.79"/>
</g>
<!-- AdminLoginComponent -->
<g id="node5" class="node">
<title>AdminLoginComponent</title>
<polygon fill="#ffffb3" stroke="black" points="661.66,-84.8 508.34,-84.8 508.34,-48.8 661.66,-48.8 661.66,-84.8"/>
<text text-anchor="middle" x="585" y="-62.6" font-family="Times,serif" font-size="14.00">AdminLoginComponent</text>
</g>
<!-- AdminLoginComponent&#45;&gt;AdminModule -->
<g id="edge5" class="edge">
<title>AdminLoginComponent&#45;&gt;AdminModule</title>
<path fill="none" stroke="black" d="M637.31,-84.91C637.31,-84.91 637.31,-103.79 637.31,-103.79"/>
<polygon fill="black" stroke="black" points="633.81,-103.79 637.31,-113.79 640.81,-103.79 633.81,-103.79"/>
</g>
<!-- AdminProfileComponent -->
<g id="node6" class="node">
<title>AdminProfileComponent</title>
<polygon fill="#ffffb3" stroke="black" points="490.32,-84.8 331.68,-84.8 331.68,-48.8 490.32,-48.8 490.32,-84.8"/>
<text text-anchor="middle" x="411" y="-62.6" font-family="Times,serif" font-size="14.00">AdminProfileComponent</text>
</g>
<!-- AdminProfileComponent&#45;&gt;AdminModule -->
<g id="edge6" class="edge">
<title>AdminProfileComponent&#45;&gt;AdminModule</title>
<path fill="none" stroke="black" d="M411,-84.83C411,-101.2 411,-122.8 411,-122.8 411,-122.8 602.71,-122.8 602.71,-122.8"/>
<polygon fill="black" stroke="black" points="602.71,-126.3 612.71,-122.8 602.71,-119.3 602.71,-126.3"/>
</g>
<!-- NavbarComponent -->
<g id="node7" class="node">
<title>NavbarComponent</title>
<polygon fill="#ffffb3" stroke="black" points="314.03,-84.8 191.97,-84.8 191.97,-48.8 314.03,-48.8 314.03,-84.8"/>
<text text-anchor="middle" x="253" y="-62.6" font-family="Times,serif" font-size="14.00">NavbarComponent</text>
</g>
<!-- NavbarComponent&#45;&gt;AdminModule -->
<g id="edge7" class="edge">
<title>NavbarComponent&#45;&gt;AdminModule</title>
<path fill="none" stroke="black" d="M253,-84.91C253,-104.14 253,-131.8 253,-131.8 253,-131.8 602.67,-131.8 602.67,-131.8"/>
<polygon fill="black" stroke="black" points="602.67,-135.3 612.67,-131.8 602.67,-128.3 602.67,-135.3"/>
</g>
<!-- AdminRoutingModule -->
<g id="node9" class="node">
<title>AdminRoutingModule</title>
<polygon fill="#8dd3c7" stroke="black" points="167.56,-84.8 164.56,-88.8 143.56,-88.8 140.56,-84.8 24.44,-84.8 24.44,-48.8 167.56,-48.8 167.56,-84.8"/>
<text text-anchor="middle" x="96" y="-62.6" font-family="Times,serif" font-size="14.00">AdminRoutingModule</text>
</g>
<!-- AdminRoutingModule&#45;&gt;AdminModule -->
<g id="edge8" class="edge">
<title>AdminRoutingModule&#45;&gt;AdminModule</title>
<path fill="none" stroke="black" d="M96,-85.09C96,-107.01 96,-140.8 96,-140.8 96,-140.8 602.76,-140.8 602.76,-140.8"/>
<polygon fill="black" stroke="black" points="602.76,-144.3 612.76,-140.8 602.76,-137.3 602.76,-144.3"/>
</g>
<!-- AppComponent -->
<g id="node10" class="node">
<title>AppComponent</title>
<polygon fill="#ffffb3" stroke="black" points="1809.94,-84.8 1704.06,-84.8 1704.06,-48.8 1809.94,-48.8 1809.94,-84.8"/>
<text text-anchor="middle" x="1757" y="-62.6" font-family="Times,serif" font-size="14.00">AppComponent</text>
</g>
<!-- AppModule -->
<g id="node12" class="node">
<title>AppModule</title>
<polygon fill="#8dd3c7" stroke="black" points="1658.66,-149.8 1655.66,-153.8 1634.66,-153.8 1631.66,-149.8 1575.34,-149.8 1575.34,-113.8 1658.66,-113.8 1658.66,-149.8"/>
<text text-anchor="middle" x="1617" y="-127.6" font-family="Times,serif" font-size="14.00">AppModule</text>
</g>
<!-- AppComponent&#45;&gt;AppModule -->
<g id="edge9" class="edge">
<title>AppComponent&#45;&gt;AppModule</title>
<path fill="none" stroke="black" d="M1757,-84.92C1757,-99.58 1757,-117.8 1757,-117.8 1757,-117.8 1669,-117.8 1669,-117.8"/>
<polygon fill="black" stroke="black" points="1669,-114.3 1659,-117.8 1669,-121.3 1669,-114.3"/>
</g>
<!-- NotFoundComponent -->
<g id="node11" class="node">
<title>NotFoundComponent</title>
<polygon fill="#ffffb3" stroke="black" points="1686.12,-84.8 1547.88,-84.8 1547.88,-48.8 1686.12,-48.8 1686.12,-84.8"/>
<text text-anchor="middle" x="1617" y="-62.6" font-family="Times,serif" font-size="14.00">NotFoundComponent</text>
</g>
<!-- NotFoundComponent&#45;&gt;AppModule -->
<g id="edge10" class="edge">
<title>NotFoundComponent&#45;&gt;AppModule</title>
<path fill="none" stroke="black" d="M1617,-84.91C1617,-84.91 1617,-103.79 1617,-103.79"/>
<polygon fill="black" stroke="black" points="1613.5,-103.79 1617,-113.79 1620.5,-103.79 1613.5,-103.79"/>
</g>
<!-- AppComponent  -->
<g id="node14" class="node">
<title>AppComponent </title>
<polygon fill="#80b1d3" stroke="black" points="1671.44,-214.8 1562.56,-214.8 1562.56,-178.8 1671.44,-178.8 1671.44,-214.8"/>
<text text-anchor="middle" x="1617" y="-192.6" font-family="Times,serif" font-size="14.00">AppComponent </text>
</g>
<!-- AppModule&#45;&gt;AppComponent  -->
<g id="edge12" class="edge">
<title>AppModule&#45;&gt;AppComponent </title>
<path fill="none" stroke="black" stroke-dasharray="1,5" d="M1617,-149.91C1617,-149.91 1617,-168.79 1617,-168.79"/>
<polygon fill="black" stroke="black" points="1613.5,-168.79 1617,-178.79 1620.5,-168.79 1613.5,-168.79"/>
</g>
<!-- AppRoutingModule -->
<g id="node13" class="node">
<title>AppRoutingModule</title>
<polygon fill="#8dd3c7" stroke="black" points="1524.28,-84.8 1521.28,-88.8 1500.28,-88.8 1497.28,-84.8 1395.72,-84.8 1395.72,-48.8 1524.28,-48.8 1524.28,-84.8"/>
<text text-anchor="middle" x="1460" y="-62.6" font-family="Times,serif" font-size="14.00">AppRoutingModule</text>
</g>
<!-- AppRoutingModule&#45;&gt;AppModule -->
<g id="edge11" class="edge">
<title>AppRoutingModule&#45;&gt;AppModule</title>
<path fill="none" stroke="black" d="M1460,-84.81C1460,-107.29 1460,-142.8 1460,-142.8 1460,-142.8 1564.93,-142.8 1564.93,-142.8"/>
<polygon fill="black" stroke="black" points="1564.93,-146.3 1574.93,-142.8 1564.93,-139.3 1564.93,-146.3"/>
</g>
<!-- AboutusComponent -->
<g id="node15" class="node">
<title>AboutusComponent</title>
<polygon fill="#ffffb3" stroke="black" points="4717.28,-84.8 4588.72,-84.8 4588.72,-48.8 4717.28,-48.8 4717.28,-84.8"/>
<text text-anchor="middle" x="4653" y="-62.6" font-family="Times,serif" font-size="14.00">AboutusComponent</text>
</g>
<!-- UserModule -->
<g id="node33" class="node">
<title>UserModule</title>
<polygon fill="#8dd3c7" stroke="black" points="3321.99,-149.8 3318.99,-153.8 3297.99,-153.8 3294.99,-149.8 3236.01,-149.8 3236.01,-113.8 3321.99,-113.8 3321.99,-149.8"/>
<text text-anchor="middle" x="3279" y="-127.6" font-family="Times,serif" font-size="14.00">UserModule</text>
</g>
<!-- AboutusComponent&#45;&gt;UserModule -->
<g id="edge13" class="edge">
<title>AboutusComponent&#45;&gt;UserModule</title>
<path fill="none" stroke="black" d="M4653,-84.95C4653,-108.56 4653,-146.8 4653,-146.8 4653,-146.8 3332.01,-146.8 3332.01,-146.8"/>
<polygon fill="black" stroke="black" points="3332.01,-143.3 3322.01,-146.8 3332.01,-150.3 3332.01,-143.3"/>
</g>
<!-- AuthorComponent -->
<g id="node16" class="node">
<title>AuthorComponent</title>
<polygon fill="#ffffb3" stroke="black" points="4570.49,-84.8 4449.51,-84.8 4449.51,-48.8 4570.49,-48.8 4570.49,-84.8"/>
<text text-anchor="middle" x="4510" y="-62.6" font-family="Times,serif" font-size="14.00">AuthorComponent</text>
</g>
<!-- AuthorComponent&#45;&gt;UserModule -->
<g id="edge14" class="edge">
<title>AuthorComponent&#45;&gt;UserModule</title>
<path fill="none" stroke="black" d="M4510,-84.81C4510,-107.29 4510,-142.8 4510,-142.8 4510,-142.8 3332.09,-142.8 3332.09,-142.8"/>
<polygon fill="black" stroke="black" points="3332.09,-139.3 3322.09,-142.8 3332.09,-146.3 3332.09,-139.3"/>
</g>
<!-- AuthorDetailsComponent -->
<g id="node17" class="node">
<title>AuthorDetailsComponent</title>
<polygon fill="#ffffb3" stroke="black" points="4431.15,-84.8 4270.85,-84.8 4270.85,-48.8 4431.15,-48.8 4431.15,-84.8"/>
<text text-anchor="middle" x="4351" y="-62.6" font-family="Times,serif" font-size="14.00">AuthorDetailsComponent</text>
</g>
<!-- AuthorDetailsComponent&#45;&gt;UserModule -->
<g id="edge15" class="edge">
<title>AuthorDetailsComponent&#45;&gt;UserModule</title>
<path fill="none" stroke="black" d="M4351,-84.84C4351,-106.46 4351,-139.8 4351,-139.8 4351,-139.8 3332.02,-139.8 3332.02,-139.8"/>
<polygon fill="black" stroke="black" points="3332.02,-136.3 3322.02,-139.8 3332.02,-143.3 3332.02,-136.3"/>
</g>
<!-- AuthorsComponent -->
<g id="node18" class="node">
<title>AuthorsComponent</title>
<polygon fill="#ffffb3" stroke="black" points="4252.44,-84.8 4125.56,-84.8 4125.56,-48.8 4252.44,-48.8 4252.44,-84.8"/>
<text text-anchor="middle" x="4189" y="-62.6" font-family="Times,serif" font-size="14.00">AuthorsComponent</text>
</g>
<!-- AuthorsComponent&#45;&gt;UserModule -->
<g id="edge16" class="edge">
<title>AuthorsComponent&#45;&gt;UserModule</title>
<path fill="none" stroke="black" d="M4189,-84.93C4189,-105.37 4189,-135.8 4189,-135.8 4189,-135.8 3332.28,-135.8 3332.28,-135.8"/>
<polygon fill="black" stroke="black" points="3332.28,-132.3 3322.28,-135.8 3332.28,-139.3 3332.28,-132.3"/>
</g>
<!-- BooksComponent -->
<g id="node19" class="node">
<title>BooksComponent</title>
<polygon fill="#ffffb3" stroke="black" points="4107.62,-84.8 3990.38,-84.8 3990.38,-48.8 4107.62,-48.8 4107.62,-84.8"/>
<text text-anchor="middle" x="4049" y="-62.6" font-family="Times,serif" font-size="14.00">BooksComponent</text>
</g>
<!-- BooksComponent&#45;&gt;UserModule -->
<g id="edge17" class="edge">
<title>BooksComponent&#45;&gt;UserModule</title>
<path fill="none" stroke="black" d="M4049,-84.91C4049,-104.14 4049,-131.8 4049,-131.8 4049,-131.8 3332.05,-131.8 3332.05,-131.8"/>
<polygon fill="black" stroke="black" points="3332.05,-128.3 3322.05,-131.8 3332.05,-135.3 3332.05,-128.3"/>
</g>
<!-- CategoriesComponent -->
<g id="node20" class="node">
<title>CategoriesComponent</title>
<polygon fill="#ffffb3" stroke="black" points="3972.7,-84.8 3831.3,-84.8 3831.3,-48.8 3972.7,-48.8 3972.7,-84.8"/>
<text text-anchor="middle" x="3902" y="-62.6" font-family="Times,serif" font-size="14.00">CategoriesComponent</text>
</g>
<!-- CategoriesComponent&#45;&gt;UserModule -->
<g id="edge18" class="edge">
<title>CategoriesComponent&#45;&gt;UserModule</title>
<path fill="none" stroke="black" d="M3902,-85.07C3902,-103.36 3902,-128.8 3902,-128.8 3902,-128.8 3332.31,-128.8 3332.31,-128.8"/>
<polygon fill="black" stroke="black" points="3332.31,-125.3 3322.31,-128.8 3332.31,-132.3 3332.31,-125.3"/>
</g>
<!-- CategoryComponent -->
<g id="node21" class="node">
<title>CategoryComponent</title>
<polygon fill="#ffffb3" stroke="black" points="3813.15,-84.8 3680.85,-84.8 3680.85,-48.8 3813.15,-48.8 3813.15,-84.8"/>
<text text-anchor="middle" x="3747" y="-62.6" font-family="Times,serif" font-size="14.00">CategoryComponent</text>
</g>
<!-- CategoryComponent&#45;&gt;UserModule -->
<g id="edge19" class="edge">
<title>CategoryComponent&#45;&gt;UserModule</title>
<path fill="none" stroke="black" d="M3747,-84.83C3747,-101.86 3747,-124.8 3747,-124.8 3747,-124.8 3332.19,-124.8 3332.19,-124.8"/>
<polygon fill="black" stroke="black" points="3332.19,-121.3 3322.19,-124.8 3332.19,-128.3 3332.19,-121.3"/>
</g>
<!-- CategoryDetailsComponent -->
<g id="node22" class="node">
<title>CategoryDetailsComponent</title>
<polygon fill="#ffffb3" stroke="black" points="3663.3,-84.8 3490.7,-84.8 3490.7,-48.8 3663.3,-48.8 3663.3,-84.8"/>
<text text-anchor="middle" x="3577" y="-62.6" font-family="Times,serif" font-size="14.00">CategoryDetailsComponent</text>
</g>
<!-- CategoryDetailsComponent&#45;&gt;UserModule -->
<g id="edge20" class="edge">
<title>CategoryDetailsComponent&#45;&gt;UserModule</title>
<path fill="none" stroke="black" d="M3577,-84.81C3577,-100.85 3577,-121.8 3577,-121.8 3577,-121.8 3332.01,-121.8 3332.01,-121.8"/>
<polygon fill="black" stroke="black" points="3332.01,-118.3 3322.01,-121.8 3332.01,-125.3 3332.01,-118.3"/>
</g>
<!-- FooterComponent -->
<g id="node23" class="node">
<title>FooterComponent</title>
<polygon fill="#ffffb3" stroke="black" points="3472.88,-84.8 3355.12,-84.8 3355.12,-48.8 3472.88,-48.8 3472.88,-84.8"/>
<text text-anchor="middle" x="3414" y="-62.6" font-family="Times,serif" font-size="14.00">FooterComponent</text>
</g>
<!-- FooterComponent&#45;&gt;UserModule -->
<g id="edge21" class="edge">
<title>FooterComponent&#45;&gt;UserModule</title>
<path fill="none" stroke="black" d="M3414,-84.92C3414,-99.58 3414,-117.8 3414,-117.8 3414,-117.8 3332.09,-117.8 3332.09,-117.8"/>
<polygon fill="black" stroke="black" points="3332.09,-114.3 3322.09,-117.8 3332.09,-121.3 3332.09,-114.3"/>
</g>
<!-- HomeComponent -->
<g id="node24" class="node">
<title>HomeComponent</title>
<polygon fill="#ffffb3" stroke="black" points="3336.55,-84.8 3221.45,-84.8 3221.45,-48.8 3336.55,-48.8 3336.55,-84.8"/>
<text text-anchor="middle" x="3279" y="-62.6" font-family="Times,serif" font-size="14.00">HomeComponent</text>
</g>
<!-- HomeComponent&#45;&gt;UserModule -->
<g id="edge22" class="edge">
<title>HomeComponent&#45;&gt;UserModule</title>
<path fill="none" stroke="black" d="M3279,-84.91C3279,-84.91 3279,-103.79 3279,-103.79"/>
<polygon fill="black" stroke="black" points="3275.5,-103.79 3279,-113.79 3282.5,-103.79 3275.5,-103.79"/>
</g>
<!-- LoginComponent -->
<g id="node25" class="node">
<title>LoginComponent</title>
<polygon fill="#ffffb3" stroke="black" points="3203.27,-84.8 3088.73,-84.8 3088.73,-48.8 3203.27,-48.8 3203.27,-84.8"/>
<text text-anchor="middle" x="3146" y="-62.6" font-family="Times,serif" font-size="14.00">LoginComponent</text>
</g>
<!-- LoginComponent&#45;&gt;UserModule -->
<g id="edge23" class="edge">
<title>LoginComponent&#45;&gt;UserModule</title>
<path fill="none" stroke="black" d="M3146,-85.08C3146,-100.75 3146,-120.8 3146,-120.8 3146,-120.8 3225.82,-120.8 3225.82,-120.8"/>
<polygon fill="black" stroke="black" points="3225.82,-124.3 3235.82,-120.8 3225.82,-117.3 3225.82,-124.3"/>
</g>
<!-- ProfileComponent -->
<g id="node26" class="node">
<title>ProfileComponent</title>
<polygon fill="#ffffb3" stroke="black" points="3070.94,-84.8 2951.06,-84.8 2951.06,-48.8 3070.94,-48.8 3070.94,-84.8"/>
<text text-anchor="middle" x="3011" y="-62.6" font-family="Times,serif" font-size="14.00">ProfileComponent</text>
</g>
<!-- ProfileComponent&#45;&gt;UserModule -->
<g id="edge24" class="edge">
<title>ProfileComponent&#45;&gt;UserModule</title>
<path fill="none" stroke="black" d="M3011,-84.84C3011,-101.53 3011,-123.8 3011,-123.8 3011,-123.8 3225.94,-123.8 3225.94,-123.8"/>
<polygon fill="black" stroke="black" points="3225.94,-127.3 3235.94,-123.8 3225.94,-120.3 3225.94,-127.3"/>
</g>
<!-- RegistrationComponent -->
<g id="node27" class="node">
<title>RegistrationComponent</title>
<polygon fill="#ffffb3" stroke="black" points="2932.77,-84.8 2783.23,-84.8 2783.23,-48.8 2932.77,-48.8 2932.77,-84.8"/>
<text text-anchor="middle" x="2858" y="-62.6" font-family="Times,serif" font-size="14.00">RegistrationComponent</text>
</g>
<!-- RegistrationComponent&#45;&gt;UserModule -->
<g id="edge25" class="edge">
<title>RegistrationComponent&#45;&gt;UserModule</title>
<path fill="none" stroke="black" d="M2858,-85.1C2858,-103.07 2858,-127.8 2858,-127.8 2858,-127.8 3225.92,-127.8 3225.92,-127.8"/>
<polygon fill="black" stroke="black" points="3225.92,-131.3 3235.92,-127.8 3225.92,-124.3 3225.92,-131.3"/>
</g>
<!-- ShelveComponent -->
<g id="node28" class="node">
<title>ShelveComponent</title>
<polygon fill="#ffffb3" stroke="black" points="2764.94,-84.8 2645.06,-84.8 2645.06,-48.8 2764.94,-48.8 2764.94,-84.8"/>
<text text-anchor="middle" x="2705" y="-62.6" font-family="Times,serif" font-size="14.00">ShelveComponent</text>
</g>
<!-- ShelveComponent&#45;&gt;UserModule -->
<g id="edge26" class="edge">
<title>ShelveComponent&#45;&gt;UserModule</title>
<path fill="none" stroke="black" d="M2705,-84.97C2705,-103.89 2705,-130.8 2705,-130.8 2705,-130.8 3225.86,-130.8 3225.86,-130.8"/>
<polygon fill="black" stroke="black" points="3225.86,-134.3 3235.86,-130.8 3225.86,-127.3 3225.86,-134.3"/>
</g>
<!-- ShelveMainComponent -->
<g id="node29" class="node">
<title>ShelveMainComponent</title>
<polygon fill="#ffffb3" stroke="black" points="2627.49,-84.8 2478.51,-84.8 2478.51,-48.8 2627.49,-48.8 2627.49,-84.8"/>
<text text-anchor="middle" x="2553" y="-62.6" font-family="Times,serif" font-size="14.00">ShelveMainComponent</text>
</g>
<!-- ShelveMainComponent&#45;&gt;UserModule -->
<g id="edge27" class="edge">
<title>ShelveMainComponent&#45;&gt;UserModule</title>
<path fill="none" stroke="black" d="M2553,-85.11C2553,-104.95 2553,-133.8 2553,-133.8 2553,-133.8 3225.76,-133.8 3225.76,-133.8"/>
<polygon fill="black" stroke="black" points="3225.76,-137.3 3235.76,-133.8 3225.76,-130.3 3225.76,-137.3"/>
</g>
<!-- ShelveSidebarComponent -->
<g id="node30" class="node">
<title>ShelveSidebarComponent</title>
<polygon fill="#ffffb3" stroke="black" points="2460.2,-84.8 2297.8,-84.8 2297.8,-48.8 2460.2,-48.8 2460.2,-84.8"/>
<text text-anchor="middle" x="2379" y="-62.6" font-family="Times,serif" font-size="14.00">ShelveSidebarComponent</text>
</g>
<!-- ShelveSidebarComponent&#45;&gt;UserModule -->
<g id="edge28" class="edge">
<title>ShelveSidebarComponent&#45;&gt;UserModule</title>
<path fill="none" stroke="black" d="M2379,-84.83C2379,-105.57 2379,-136.8 2379,-136.8 2379,-136.8 3225.89,-136.8 3225.89,-136.8"/>
<polygon fill="black" stroke="black" points="3225.89,-140.3 3235.89,-136.8 3225.89,-133.3 3225.89,-140.3"/>
</g>
<!-- SingleBookComponent -->
<g id="node31" class="node">
<title>SingleBookComponent</title>
<polygon fill="#ffffb3" stroke="black" points="2279.95,-84.8 2132.05,-84.8 2132.05,-48.8 2279.95,-48.8 2279.95,-84.8"/>
<text text-anchor="middle" x="2206" y="-62.6" font-family="Times,serif" font-size="14.00">SingleBookComponent</text>
</g>
<!-- SingleBookComponent&#45;&gt;UserModule -->
<g id="edge29" class="edge">
<title>SingleBookComponent&#45;&gt;UserModule</title>
<path fill="none" stroke="black" d="M2206,-85.09C2206,-107.01 2206,-140.8 2206,-140.8 2206,-140.8 3225.94,-140.8 3225.94,-140.8"/>
<polygon fill="black" stroke="black" points="3225.94,-144.3 3235.94,-140.8 3225.94,-137.3 3225.94,-144.3"/>
</g>
<!-- UserComponent -->
<g id="node32" class="node">
<title>UserComponent</title>
<polygon fill="#ffffb3" stroke="black" points="2113.77,-84.8 2006.23,-84.8 2006.23,-48.8 2113.77,-48.8 2113.77,-84.8"/>
<text text-anchor="middle" x="2060" y="-62.6" font-family="Times,serif" font-size="14.00">UserComponent</text>
</g>
<!-- UserComponent&#45;&gt;UserModule -->
<g id="edge30" class="edge">
<title>UserComponent&#45;&gt;UserModule</title>
<path fill="none" stroke="black" d="M2060,-85.05C2060,-107.82 2060,-143.8 2060,-143.8 2060,-143.8 3225.97,-143.8 3225.97,-143.8"/>
<polygon fill="black" stroke="black" points="3225.97,-147.3 3235.97,-143.8 3225.97,-140.3 3225.97,-147.3"/>
</g>
<!-- UserRoutingModule -->
<g id="node34" class="node">
<title>UserRoutingModule</title>
<polygon fill="#8dd3c7" stroke="black" points="1981.6,-84.8 1978.6,-88.8 1957.6,-88.8 1954.6,-84.8 1850.4,-84.8 1850.4,-48.8 1981.6,-48.8 1981.6,-84.8"/>
<text text-anchor="middle" x="1916" y="-62.6" font-family="Times,serif" font-size="14.00">UserRoutingModule</text>
</g>
<!-- UserRoutingModule&#45;&gt;UserModule -->
<g id="edge31" class="edge">
<title>UserRoutingModule&#45;&gt;UserModule</title>
<path fill="none" stroke="black" d="M1916,-84.95C1916,-108.56 1916,-146.8 1916,-146.8 1916,-146.8 3225.96,-146.8 3225.96,-146.8"/>
<polygon fill="black" stroke="black" points="3225.96,-150.3 3235.96,-146.8 3225.96,-143.3 3225.96,-150.3"/>
</g>
</g>
</svg>
